<?xml version="1.0" encoding="utf-8"?>
<svg version="1.1" id="Livello_1" xmlns="http://www.w3.org/2000/svg" xmlns:xlink="http://www.w3.org/1999/xlink" x="0px" y="0px"
	 viewBox="175 350 800 550" style="enable-background:new 0 0 1200 1200;" xml:space="preserve">
<defs>
<style>
*{fill:#fff;}
</style>
</defs>
<g>
	<path d="M493.04,803.97c-62.87,0-94.3-51.08-94.3-138.17c0-72.03,29.47-134.9,72.03-134.9c19.65,0,26.85,14.4,34.05,30.78
		c9.17,21.61,17.02,47.15,51.73,47.15c24.88,0,38.64-15.72,38.64-33.4c0-44.53-75.96-60.9-123.11-60.9
		c-99.54,0-176.81,60.9-176.81,170.91c0,91.02,55.66,170.26,168.95,170.26c72.69,0,131.62-39.29,155.85-132.28l-11.13-3.27
		C580.13,787.6,536.25,803.97,493.04,803.97z"/>
	<path d="M340.92,467.88c29.55,0,42.74-17.62,42.74-46.06v-65.07h-5.83v64.8c0,23.31-9.3,38.29-29.83,38.29
		c-18.87,0-29.97-12.63-29.97-35.52v-67.57h-22.75v66.46C295.27,451.51,311.65,467.88,340.92,467.88z"/>
	<polygon points="422.49,414.6 422.49,399.2 401.26,399.2 401.26,465.94 422.49,465.94"/>
	<path d="M436.36,404.75c6.24,0,11.66,3.88,11.66,16.65v44.54h21.23v-44.95c0-12.9-5.69-25.53-22.75-25.53
		c-10.55,0-20.95,4.86-24,19.15C425.96,407.8,430.54,404.75,436.36,404.75z"/>
	<rect x="486.72" y="399.2" width="21.23" height="66.74"/>
	<path d="M497.4,381.02c6.8,0,12.35-5.55,12.35-12.35c0-6.8-5.55-12.35-12.35-12.35c-6.8,0-12.35,5.55-12.35,12.35
		C485.05,375.47,490.6,381.02,497.4,381.02z"/>
	<path d="M895.1,770.55c-22.27,32.75-38.64,42.58-60.91,42.58c-32.1,0-47.81-18.99-47.81-62.23V549.81h115.28v-18.34H786.38v-27.58
		c0,0,1.8-41.67-17.75-75.43c-29.7-61.18-98.25-84.53-156.67-66.2c38.34,12.51,64.19,40.92,72.09,83.79
		c1.85,10.06,2.12,24.19,2.11,40.54v44.88h-56.34v18.34h56.34v199.12c0,72.05,39.95,106.77,101.52,106.77
		c55.02,0,93.67-26.86,117.9-79.26L895.1,770.55z"/>
</g>
</svg>